<svg xmlns="http://www.w3.org/2000/svg" width="17" height="13" viewBox="0 0 17 13" fill="none">
  <path d="M1.625 13C1.17812 13 0.795708 12.841 0.47775 12.5231C0.159792 12.2051 0.000541667 11.8224 0 11.375V1.625C0 1.17812 0.15925 0.795708 0.47775 0.47775C0.79625 0.159792 1.17867 0.000541667 1.625 0H14.625C15.0719 0 15.4546 0.15925 15.7731 0.47775C16.0916 0.79625 16.2505 1.17867 16.25 1.625V11.375C16.25 11.8219 16.091 12.2046 15.7731 12.5231C15.4551 12.8416 15.0724 13.0005 14.625 13H1.625ZM8.125 7.3125L1.625 3.25V11.375H14.625V3.25L8.125 7.3125ZM8.125 5.6875L14.625 1.625H1.625L8.125 5.6875ZM1.625 3.25V1.625V11.375V3.25Z" fill="black"/>
</svg>