<svg xmlns="http://www.w3.org/2000/svg" width="16" height="16" viewBox="0 0 16 16" fill="none">
  <path d="M10.0741 0C9.13875 0.000838676 8.21688 0.222872 7.38374 0.64797C6.5506 1.07307 5.82981 1.68918 5.28021 2.446C4.73062 3.20282 4.36781 4.0789 4.2214 5.00269C4.07499 5.92649 4.14913 6.87181 4.43778 7.76148L0.173334 12.0252C0.118321 12.0803 0.0746975 12.1456 0.0449564 12.2176C0.0152153 12.2895 -6.10287e-05 12.3666 1.83229e-07 12.4444V15.4074C1.83229e-07 15.5646 0.0624338 15.7153 0.173567 15.8264C0.284699 15.9376 0.435427 16 0.592593 16H3.55556C3.71272 16 3.86345 15.9376 3.97458 15.8264C4.08571 15.7153 4.14815 15.5646 4.14815 15.4074V14.2222H5.33333C5.4905 14.2222 5.64123 14.1598 5.75236 14.0487C5.86349 13.9375 5.92593 13.7868 5.92593 13.6296V12.4444H7.11111C7.18895 12.4445 7.26605 12.4292 7.33799 12.3995C7.40992 12.3697 7.4753 12.3261 7.53037 12.2711L8.23852 11.5622C9.05298 11.8267 9.91507 11.9114 10.7654 11.8107C11.6158 11.71 12.4343 11.4262 13.1644 10.9788C13.8946 10.5314 14.5191 9.93115 14.995 9.21925C15.4709 8.50735 15.7868 7.70078 15.9211 6.85506C16.0554 6.00933 16.0047 5.14456 15.7727 4.32028C15.5407 3.496 15.1328 2.73179 14.5771 2.08029C14.0214 1.42878 13.3311 0.905444 12.5537 0.546319C11.7764 0.187194 10.9304 0.000809414 10.0741 0ZM10.0741 10.6667C9.4742 10.6677 8.87963 10.5543 8.32222 10.3326C8.21318 10.2853 8.09243 10.2718 7.97566 10.294C7.85889 10.3162 7.75148 10.373 7.66741 10.457L6.86593 11.2593H5.33333C5.17617 11.2593 5.02544 11.3217 4.91431 11.4328C4.80317 11.544 4.74074 11.6947 4.74074 11.8519V13.037H3.55556C3.39839 13.037 3.24766 13.0995 3.13653 13.2106C3.0254 13.3217 2.96296 13.4725 2.96296 13.6296V14.8148H1.18519V12.6896L5.54296 8.33259C5.62699 8.24852 5.68378 8.14111 5.70598 8.02434C5.72817 7.90757 5.71473 7.78682 5.66741 7.67778C5.29266 6.73544 5.22997 5.69777 5.48854 4.71717C5.74711 3.73657 6.31331 2.86474 7.10399 2.22971C7.89467 1.59468 8.86814 1.22993 9.88143 1.18904C10.8947 1.14815 11.8944 1.43327 12.7337 2.00252C13.573 2.57177 14.2076 3.39515 14.5443 4.35173C14.8811 5.3083 14.9022 6.34765 14.6046 7.31712C14.307 8.28658 13.7064 9.13507 12.8909 9.73796C12.0755 10.3408 11.0882 10.6663 10.0741 10.6667ZM12.4444 4.44444C12.4444 4.62025 12.3923 4.79211 12.2946 4.93828C12.197 5.08446 12.0581 5.19839 11.8957 5.26567C11.7333 5.33295 11.5546 5.35055 11.3821 5.31625C11.2097 5.28196 11.0513 5.1973 10.927 5.07298C10.8027 4.94867 10.718 4.79029 10.6837 4.61786C10.6494 4.44543 10.6671 4.2667 10.7343 4.10428C10.8016 3.94186 10.9155 3.80303 11.0617 3.70536C11.2079 3.60769 11.3797 3.55556 11.5556 3.55556C11.7913 3.55556 12.0174 3.64921 12.1841 3.81591C12.3508 3.9826 12.4444 4.2087 12.4444 4.44444Z" fill="black"/>
</svg>