<svg width="18" height="18" viewBox="0 0 18 18" fill="none" xmlns="http://www.w3.org/2000/svg">
<path d="M16.8727 0.444402L17.3611 0.932748C18.034 1.6065 17.9322 2.80088 17.1318 3.60044L7.06114 13.6711L3.79833 14.8647C3.38862 15.0153 2.98967 14.82 2.90855 14.4301C2.88114 14.2887 2.89404 14.1424 2.9458 14.008L4.16252 10.717L14.2051 0.673676C15.0054 -0.125885 16.1998 -0.229348 16.8727 0.444402ZM6.62163 1.44592C6.73033 1.44592 6.83796 1.46733 6.93838 1.50893C7.0388 1.55053 7.13005 1.61149 7.2069 1.68835C7.28376 1.76521 7.34473 1.85646 7.38633 1.95688C7.42792 2.0573 7.44933 2.16493 7.44933 2.27363C7.44933 2.38232 7.42792 2.48995 7.38633 2.59038C7.34473 2.6908 7.28376 2.78204 7.2069 2.8589C7.13005 2.93576 7.0388 2.99673 6.93838 3.03833C6.83796 3.07992 6.73033 3.10133 6.62163 3.10133H3.31081C2.87177 3.10133 2.45071 3.27574 2.14027 3.58619C1.82982 3.89664 1.65541 4.3177 1.65541 4.75674V14.6892C1.65541 15.1282 1.82982 15.5493 2.14027 15.8597C2.45071 16.1702 2.87177 16.3446 3.31081 16.3446H13.2433C13.6823 16.3446 14.1034 16.1702 14.4138 15.8597C14.7243 15.5493 14.8987 15.1282 14.8987 14.6892V11.3784C14.8987 11.1588 14.9859 10.9483 15.1411 10.7931C15.2963 10.6379 15.5069 10.5507 15.7264 10.5507C15.9459 10.5507 16.1564 10.6379 16.3116 10.7931C16.4669 10.9483 16.5541 11.1588 16.5541 11.3784V14.6892C16.5541 15.5673 16.2053 16.4094 15.5844 17.0303C14.9635 17.6512 14.1213 18 13.2433 18H3.31081C2.43273 18 1.59061 17.6512 0.969715 17.0303C0.348817 16.4094 0 15.5673 0 14.6892V4.75674C0 3.87866 0.348817 3.03654 0.969715 2.41564C1.59061 1.79474 2.43273 1.44592 3.31081 1.44592H6.62163Z" fill="black"/>
</svg>
